# xmcd
#
# Track frame offsets: 
#        150
#        6527
#        28127
#        44987
#        62822
#        83455
#        84617
#        107562
#        126727
#        148695
#        166382
#        185735
#        203755
#        205955
#        227112
#        228412
#        244002
#        262417
#        291077
#        313575
#
# Disc length: 4269 seconds
#
# Revision: 0
# Processed by: cddbd v1.5.2PL0 Copyright (c) Steve Scherf et al.
# Submitted via: ExactAudioCopy v0.99pb5
#
DISCID=3610ab14
DTITLE=2-Tyght - Game Like That
DYEAR=2000
DGENRE=Rap
TTITLE0=Versatility - Intro
TTITLE1=Who Got Tha Funk
TTITLE2=Game Like That
TTITLE3=Tis Tha Season
TTITLE4=What's Happenin
TTITLE5=2-11
TTITLE6=I Knew You Wasn't
TTITLE7=We'll Make Tha Doe
TTITLE8=Let's Get Toasted
TTITLE9=What's Tha Deal
TTITLE10=At Eleven
TTITLE11=Pricele$$ Game
TTITLE12=Revenge
TTITLE13=Wings Of Life
TTITLE14=Redemption
TTITLE15=Step'n My Shoes
TTITLE16=Time Will Tell
TTITLE17=It's Apart Of Me
TTITLE18=Call It What You Want
TTITLE19=Versatility - Outro
EXTD=
EXTT0=
EXTT1=
EXTT2=
EXTT3=
EXTT4=
EXTT5=
EXTT6=
EXTT7=
EXTT8=
EXTT9=
EXTT10=
EXTT11=
EXTT12=
EXTT13=
EXTT14=
EXTT15=
EXTT16=
EXTT17=
EXTT18=
EXTT19=
PLAYORDER=
